<?xml version="1.0" ?><svg viewBox="0 0 60 60" xmlns="http://www.w3.org/2000/svg"><defs><style>.a{fill:#e82e5f;}.b{fill:none;stroke:#1c4db8;stroke-linecap:round;stroke-linejoin:round;stroke-width:1.5px;}</style></defs><title/><path class="a" d="M45.437,2.318a1.106,1.106,0,0,0-.83-.684C36.772.59,28.362,5.749,28.424,13.457c-3.415-4-8.963-3.844-11.926-2.4a.657.657,0,0,0-.034,1.164c3.841,2.162,7.335,7.938,13,6.7a10.151,10.151,0,0,1-.632,3.655.75.75,0,0,0,.472.95.74.74,0,0,0,.239.04.751.751,0,0,0,.711-.511,10.935,10.935,0,0,0,.464-6.236c8.652.449,11.777-9.428,14.65-13.42A1.113,1.113,0,0,0,45.437,2.318ZM21.379,12.129c5.688.239,7.98,5.656,7.98,5.656A24.862,24.862,0,0,0,21.379,12.129Zm8.633,3.236s2.242-9.73,11.681-11.8A42.248,42.248,0,0,0,30.012,15.365Z"/><circle class="b" cx="29.999" cy="40.652" r="17.848"/><path class="b" d="M23.5,57.276s4.015-4.87.258-5.918a4.4,4.4,0,0,1-3.28-4.757h1.712A2.38,2.38,0,0,0,24.5,43.644l-1.19-4.759c-.383-1.534-5.326-4.17-10.8-1.8"/><path class="b" d="M44.254,29.943,41.013,32.1a3.686,3.686,0,0,1-3.934.131,3.751,3.751,0,0,0-4.638.615,3.883,3.883,0,0,0-.989,2l-.317,1.659a2.38,2.38,0,0,0,2.309,2.957s5.17-.8,5.5,1.688c.221,1.649-.94,3.112-1.75,3.912a2.706,2.706,0,0,0-.011,3.886l.045.04a2.918,2.918,0,0,0,2.226.652l6.32-.654a17.769,17.769,0,0,0-1.525-19.038Z"/></svg>